<svg width="1440" height="959" viewBox="0 0 1440 959" fill="none" xmlns="http://www.w3.org/2000/svg">
<g clip-path="url(#clip0_1067_59762)">
<rect width="1440" height="959" fill="#4C4DAB"/>
<path d="M1873.6 284.392C1990.56 216.331 2129.18 77.734 2129.18 -72H650.182V1249H1126.06C1337.7 1213.73 1490.55 919.833 1528.3 713.794C1566.04 507.755 1756.64 352.452 1873.6 284.392Z" fill="#1A1C9A"/>
<path d="M1623.6 284.392C1740.48 216.331 1879.02 77.734 1879.02 -72H400.903V1249H876.498C1088.01 1213.73 1240.77 919.833 1278.5 713.794C1316.22 507.755 1506.71 352.452 1623.6 284.392Z" fill="#2224A0"/>
<path d="M1374.17 284.392C1491.12 216.331 1629.74 77.734 1629.74 -72H150.747V1249H626.624C838.262 1213.73 991.112 919.833 1028.86 713.794C1066.61 507.755 1257.21 352.452 1374.17 284.392Z" fill="#2D2FA8"/>
<path d="M1124.01 284.392C1240.97 216.331 1379.58 77.734 1379.58 -72H-99.4092V1249H376.468C588.106 1213.73 740.956 919.833 778.704 713.794C816.453 507.755 1007.05 352.452 1124.01 284.392Z" fill="#3D3FB3"/>
<path d="M873.853 284.392C990.811 216.331 1129.43 77.734 1129.43 -72H-349.565V1249H126.312C337.95 1213.73 490.8 919.833 528.548 713.794C566.297 507.755 756.895 352.452 873.853 284.392Z" fill="#5556C4"/>
<path d="M623.849 284.392C740.737 216.331 879.272 77.734 879.272 -72H-598.844V1249H-123.249C88.2635 1213.73 241.023 919.833 278.749 713.794C316.475 507.755 506.96 352.452 623.849 284.392Z" fill="#6364CE"/>
<path d="M374.418 284.392C491.376 216.331 629.993 77.734 629.993 -72H-849V1249H-373.123C-161.485 1213.73 -8.6347 919.833 29.1136 713.794C66.862 507.755 257.46 352.452 374.418 284.392Z" fill="#6E70D6"/>
</g>
<defs>
<clipPath id="clip0_1067_59762">
<rect width="1440" height="959" fill="white"/>
</clipPath>
</defs>
</svg>
